<svg width="480" height="145" viewBox="0 0 480 145" fill="none" xmlns="http://www.w3.org/2000/svg">
<path d="M86.6016 138.706H42.044C40.3575 138.706 38.9778 140.085 38.9778 141.772C38.9778 143.458 40.3575 144.838 42.044 144.838H86.6016C88.2881 144.838 89.6678 143.458 89.6678 141.772C89.6691 140.085 88.2894 138.706 86.6016 138.706Z" fill="#F21D08"/>
<path d="M0 44.2841V119.264C0 124.784 4.47678 129.261 9.99711 129.261H92.2747V34.2876H9.99711C4.47678 34.2876 0 38.7657 0 44.286V44.2841Z" fill="#F21D08"/>
<path d="M144.131 28H107.607C102.548 28 98.4072 32.1098 98.4072 37.2V135.64C98.4072 140.73 102.548 144.84 107.607 144.84H144.131C149.221 144.84 153.331 140.73 153.331 135.64V37.2C153.331 32.1098 149.223 28 144.131 28ZM110.676 75.4096C110.676 73.7231 112.025 72.3433 113.742 72.3433H122.666C124.353 72.3433 125.733 73.7231 125.733 75.4096C125.733 77.0961 124.353 78.4758 122.666 78.4758H113.742C112.025 78.4771 110.676 77.0961 110.676 75.4096ZM125.887 126.992C122.483 126.992 119.753 124.233 119.753 120.858C119.753 117.485 122.483 114.724 125.887 114.724C129.26 114.724 132.02 117.484 132.02 120.858C132.019 124.231 129.26 126.992 125.887 126.992ZM138.031 65.2304H113.742C112.025 65.2304 110.676 63.8507 110.676 62.1642C110.676 60.4777 112.025 59.098 113.742 59.098H138.031C139.717 59.098 141.097 60.4777 141.097 62.1642C141.097 63.8507 139.717 65.2304 138.031 65.2304ZM138.031 51.9824H113.742C112.025 51.9824 110.676 50.6027 110.676 48.9162C110.676 47.2297 112.025 45.85 113.742 45.85H138.031C139.717 45.85 141.097 47.2297 141.097 48.9162C141.097 50.6027 139.717 51.9824 138.031 51.9824Z" fill="#F21D08"/>
<path d="M218.08 143.728C214.72 143.728 211.072 142.912 207.136 141.28C203.296 139.552 199.696 137.2 196.336 134.224H195.904L194.896 142H185.392V39.472H197.2V67.408L196.768 80.944H197.2C200.368 77.68 204.016 75.088 208.144 73.168C212.368 71.248 216.544 70.288 220.672 70.288C225.376 70.288 229.552 71.152 233.2 72.88C236.848 74.512 239.872 76.912 242.272 80.08C244.768 83.152 246.64 86.896 247.888 91.312C249.136 95.632 249.76 100.48 249.76 105.856C249.76 111.808 248.896 117.136 247.168 121.84C245.44 126.544 243.088 130.528 240.112 133.792C237.232 137.056 233.872 139.552 230.032 141.28C226.192 142.912 222.208 143.728 218.08 143.728ZM216.208 133.792C219.28 133.792 222.112 133.168 224.704 131.92C227.296 130.576 229.552 128.752 231.472 126.448C233.392 124.048 234.88 121.12 235.936 117.664C236.992 114.208 237.52 110.32 237.52 106C237.52 102.16 237.136 98.656 236.368 95.488C235.6 92.32 234.4 89.632 232.768 87.424C231.232 85.12 229.216 83.344 226.72 82.096C224.224 80.848 221.248 80.224 217.792 80.224C214.72 80.224 211.408 81.088 207.856 82.816C204.4 84.448 200.848 87.088 197.2 90.736V125.584C200.56 128.56 203.92 130.672 207.28 131.92C210.736 133.168 213.712 133.792 216.208 133.792ZM303.848 142V81.664H271.304V72.016H315.656V142H303.848ZM308.456 57.328C305.768 57.328 303.512 56.512 301.688 54.88C299.864 53.152 298.952 50.896 298.952 48.112C298.952 45.328 299.864 43.12 301.688 41.488C303.512 39.76 305.768 38.896 308.456 38.896C311.144 38.896 313.4 39.76 315.224 41.488C317.048 43.12 317.96 45.328 317.96 48.112C317.96 50.896 317.048 53.152 315.224 54.88C313.4 56.512 311.144 57.328 308.456 57.328ZM401.424 143.728C396.336 143.728 392.064 143.056 388.608 141.712C385.152 140.272 382.368 138.304 380.256 135.808C378.144 133.216 376.608 130.144 375.648 126.592C374.784 123.04 374.352 119.104 374.352 114.784V81.664H354.624V72.736L374.784 72.016L376.368 49.552H386.16V72.016H420.576V81.664H386.16V114.928C386.16 118.096 386.448 120.88 387.023 123.28C387.6 125.584 388.56 127.552 389.904 129.184C391.248 130.816 393.072 132.064 395.376 132.928C397.68 133.696 400.512 134.08 403.872 134.08C407.232 134.08 410.256 133.792 412.944 133.216C415.632 132.64 418.224 131.872 420.719 130.912L423.312 139.552C420.144 140.704 416.784 141.664 413.232 142.432C409.776 143.296 405.84 143.728 401.424 143.728Z" fill="#080708"/>
</svg>
